<svg width="24" height="24" viewBox="0 0 24 24" fill="none" xmlns="http://www.w3.org/2000/svg">
<g clip-path="url(#clip0_1_1574)">
<path d="M0.29297 0.292893C0.683494 -0.0976311 1.31651 -0.0976311 1.70703 0.292893L23.707 22.2929L23.7754 22.3691C24.0957 22.7618 24.0731 23.3408 23.707 23.707C23.3409 24.0731 22.7619 24.0957 22.3691 23.7753L22.293 23.707L16.5859 17.9999H3C2.55942 17.9999 2.17075 17.7116 2.04297 17.29C1.9154 16.8686 2.07847 16.4135 2.44434 16.1689L2.44043 16.1708C2.43904 16.1718 2.43756 16.173 2.43652 16.1738C2.44421 16.168 2.46171 16.1539 2.48828 16.1318C2.5415 16.0874 2.63069 16.0093 2.74316 15.8905C2.96756 15.6537 3.29035 15.2545 3.62207 14.6464C4.2829 13.4349 5 11.3526 5 7.99992C4.99903 7.51658 5.0494 7.03512 5.14942 6.5634L0.29297 1.70696C-0.0975548 1.31643 -0.0975548 0.683418 0.29297 0.292893ZM12.9209 20.412C13.2182 20.0018 13.7837 19.8752 14.2314 20.1347C14.7092 20.4118 14.8718 21.0242 14.5947 21.5019L14.4912 21.6689C14.2359 22.0492 13.8955 22.3661 13.4971 22.5956C13.0417 22.8579 12.5256 22.996 12 22.996C11.4745 22.996 10.9583 22.8579 10.5029 22.5956C10.1045 22.3661 9.76413 22.0492 9.50879 21.6689L9.40527 21.5019L9.3584 21.4111C9.14938 20.9491 9.32055 20.3946 9.76856 20.1347C10.2462 19.8579 10.8576 20.0205 11.1348 20.498C11.2227 20.6495 11.3492 20.7758 11.501 20.8632C11.6527 20.9506 11.8249 20.996 12 20.996C12.1751 20.996 12.3473 20.9506 12.499 20.8632C12.6508 20.7758 12.7773 20.6495 12.8652 20.498L12.9209 20.412ZM6.99414 8.40813C6.93821 11.8285 6.18533 14.1231 5.37793 15.6034C5.30166 15.7433 5.22372 15.875 5.14746 15.9999H14.5859L6.99414 8.40813ZM11.6631 0.998948C12.9296 0.937921 14.189 1.22229 15.3066 1.82121C16.4243 2.4202 17.3583 3.31185 18.0088 4.40032C18.6592 5.48877 19.0019 6.73388 19 8.00188C19 8.00643 19.0001 8.01099 19 8.01555C18.9777 9.4099 19.128 10.8012 19.4473 12.1572L19.5947 12.7363L19.6162 12.8368C19.6995 13.3366 19.3929 13.8284 18.8936 13.9648C18.394 14.1012 17.8794 13.8334 17.6973 13.3603L17.665 13.2636L17.501 12.6161C17.1438 11.0996 16.9751 9.54386 17 7.9843C16.9988 7.08341 16.7542 6.19917 16.292 5.42571C15.8273 4.64829 15.1596 4.01172 14.3613 3.58391C13.5631 3.1562 12.6634 2.95336 11.7588 2.99699C10.8542 3.04069 9.978 3.3293 9.22461 3.83196C8.76523 4.13817 8.14433 4.01391 7.83789 3.55461C7.53166 3.09523 7.65593 2.47434 8.11524 2.16789C9.17004 1.4642 10.3966 1.06005 11.6631 0.998948Z" fill="#111111"/>
</g>
<defs>
<clipPath id="clip0_1_1574">
<rect width="24" height="24" fill="white"/>
</clipPath>
</defs>
</svg>
