<svg width="24" height="24" viewBox="0 0 24 24" fill="none" xmlns="http://www.w3.org/2000/svg">
<g clip-path="url(#clip0_3965_14363)">
<path d="M11.2497 9.67353L10.3837 9.17353L4.63321 19.1337C4.49555 19.3726 4.57752 19.6786 4.81622 19.8167C5.05523 19.9547 5.36105 19.8725 5.49923 19.6337L11.2497 9.67353ZM7.23128 20.6337C6.54081 21.8291 5.01181 22.239 3.81622 21.5487C2.62094 20.8583 2.21121 19.3292 2.90116 18.1337L8.59159 8.27756C7.61371 7.96787 6.33444 7.83084 4.9527 7.93576C4.13123 7.99807 3.39675 7.59044 3.00435 6.98228C2.58773 6.33649 2.54767 5.41577 3.22302 4.71681L3.48826 4.45272C4.84551 3.15272 6.71535 2.12818 9.15609 2.06543C11.6955 2.00022 14.7143 2.98121 18.277 5.51364C18.8543 4.63419 20.0232 4.34686 20.9459 4.87931L21.8119 5.3793C22.7652 5.92968 23.0996 7.14894 22.5454 8.10882L19.043 14.1752C18.4893 15.1342 17.2661 15.4565 16.3119 14.9056L15.4459 14.4056C14.4896 13.8532 14.1616 12.63 14.7138 11.6735L12.9818 10.6735L7.23128 20.6337ZM17.2685 7.24869C13.8554 4.78935 11.2054 4.01352 9.20714 4.06489C7.32616 4.11327 5.89687 4.8981 4.8275 5.93973C6.9192 5.78476 9.04693 6.0932 10.5177 6.94148L15.7138 9.94148L17.2685 7.24869ZM16.4459 12.6735L17.3119 13.1735L20.8119 7.11136L19.9459 6.61136L16.4459 12.6735Z" fill="#111111"/>
</g>
<defs>
<clipPath id="clip0_3965_14363">
<rect width="24" height="24" fill="white"/>
</clipPath>
</defs>
</svg>
