<svg width="118" height="30" fill="none" xmlns="http://www.w3.org/2000/svg"><path d="M106.288 29.878H3.278c-1.87 0-3.018-1.727-2.418-3.636L8.282 2.654C8.762 1.124 10.218 0 11.713 0h103.008c1.871 0 3.018 1.728 2.418 3.637l-7.42 23.588c-.48 1.528-1.936 2.653-3.433 2.653h.002z" fill="url(#a)"/><path d="M10.684 24.367c-1.365-1.014-1.89-2.495-1.575-4.443.026-.16.092-.441.198-.843h6.374c-.172.683-.115 1.215.173 1.596s.79.572 1.51.572c.594 0 1.093-.13 1.495-.391a1.57 1.57 0 0 0 .72-1.114c.09-.562-.097-1.025-.561-1.386-.465-.36-1.244-.782-2.337-1.265-1.093-.482-1.983-.938-2.672-1.37a4.97 4.97 0 0 1-1.683-1.777c-.432-.753-.558-1.692-.375-2.816.237-1.466.81-2.727 1.72-3.78.91-1.054 2.072-1.858 3.485-2.41 1.414-.553 2.972-.829 4.676-.829 1.54 0 2.868.236 3.981.708 1.114.472 1.934 1.15 2.458 2.034.525.883.69 1.927.493 3.132a6.657 6.657 0 0 1-.148.723h-6.499c.036-.1.07-.24.1-.422.077-.483-.016-.86-.28-1.13-.263-.272-.662-.407-1.196-.407-.533 0-1.022.135-1.405.406a1.652 1.652 0 0 0-.691 1.13c-.084.522.104.97.568 1.34.463.373 1.208.81 2.236 1.311 1.103.542 2 1.05 2.695 1.522a5.305 5.305 0 0 1 1.681 1.882c.427.783.549 1.747.363 2.892-.205 1.265-.739 2.405-1.6 3.419-.863 1.014-1.987 1.807-3.373 2.379-1.386.571-2.962.859-4.727.859-2.505 0-4.441-.508-5.805-1.522h.002zM40.196 4.443l-4.182 12.319a6.55 6.55 0 0 0-.258 1.025c-.13.803-.01 1.426.36 1.867.37.441 1.016.663 1.94.663 1.11 0 2.053-.311 2.832-.934.778-.622 1.36-1.495 1.75-2.621l4.212-12.32h6.036l-4.213 12.32c-.675 2.008-1.657 3.695-2.945 5.06-1.29 1.366-2.758 2.385-4.407 3.058a13.668 13.668 0 0 1-5.214 1.009c-2.36 0-4.158-.603-5.39-1.808-1.232-1.205-1.665-2.932-1.3-5.18.116-.723.303-1.435.561-2.139l4.213-12.32h6.006-.002zM68.831 15.03c-.96 1.055-2.16 1.9-3.597 2.53-1.437.634-3.038.95-4.803.95h-2.987l-2.455 7.167h-6.067L56.21 4.443h9.024c2.28 0 3.932.507 4.958 1.521 1.027 1.015 1.402 2.375 1.126 4.081-.07.422-.2.915-.393 1.476a9.858 9.858 0 0 1-2.092 3.51h-.002zm-4.036-3.509a5.15 5.15 0 0 0 .159-.602c.088-.543-.022-.969-.331-1.28-.309-.31-.834-.466-1.573-.466h-2.402l-1.587 4.669h2.402c1.704 0 2.815-.773 3.332-2.32zM80.245 9.111l-1.188 3.524h6.93l-1.56 4.489H77.5l-1.333 3.855h7.854l-1.592 4.698h-13.92l7.288-21.234h13.89L88.097 9.11h-7.853zM107.152 5.933c1.03.994 1.412 2.315 1.145 3.961a7.345 7.345 0 0 1-.343 1.356c-.481 1.446-1.313 2.716-2.495 3.81-1.184 1.095-2.644 1.873-4.381 2.334l2.046 8.284h-6.713l-1.627-7.831h-.647l-2.684 7.83h-6.068l7.289-21.234h9.516c2.279 0 3.933.497 4.964 1.49h-.002zM95.529 13.81h2.987c1.601 0 2.667-.744 3.194-2.23.08-.24.129-.412.144-.512.088-.542-.024-.964-.334-1.265-.31-.3-.816-.451-1.512-.451h-2.987l-1.492 4.458z" fill="#FEFEFF"/><defs><linearGradient id="a" x1="59" y1="0" x2="59" y2="29.878" gradientUnits="userSpaceOnUse"><stop stop-color="#F04E00"/><stop offset="1" stop-color="#FA7B1E"/></linearGradient></defs></svg>