<svg width="10" height="10" viewBox="0 0 10 10" fill="none" xmlns="http://www.w3.org/2000/svg">
<mask id="mask0_1_8" style="mask-type:luminance" maskUnits="userSpaceOnUse" x="0" y="0" width="10" height="10">
<path d="M10 0H0V10H10V0Z" fill="white"/>
</mask>
<g mask="url(#mask0_1_8)">
<path d="M6.66667 8.75V7.9167C6.66667 7.5852 6.53488 7.2673 6.30046 7.0329C6.09537 6.82784 5.82646 6.70125 5.54036 6.67281L5.41667 6.66671H2.08333C1.75181 6.66671 1.43396 6.7985 1.19954 7.0329C0.96512 7.2673 0.83333 7.5852 0.83333 7.9167V8.75C0.83333 8.9802 0.64679 9.1667 0.41667 9.1667C0.18655 9.1667 0 8.9802 0 8.75V7.9167C0 7.3642 0.21965 6.83443 0.61035 6.44373C1.00105 6.05303 1.5308 5.83337 2.08333 5.83337H5.41667L5.52002 5.83582C6.03493 5.86137 6.52338 6.07745 6.88965 6.44373C7.2803 6.83443 7.5 7.3642 7.5 7.9167V8.75C7.5 8.9802 7.3135 9.1667 7.0833 9.1667C6.85321 9.1667 6.66667 8.9802 6.66667 8.75ZM9.1667 8.75V7.9171L9.1622 7.8138C9.1421 7.5737 9.0531 7.3437 8.9046 7.1521C8.7561 6.96055 8.5556 6.8168 8.328 6.73751L8.2292 6.7078L8.1885 6.69478C7.9904 6.62159 7.8762 6.40887 7.9301 6.19999C7.9841 5.99119 8.1869 5.86057 8.3956 5.89237L8.4375 5.90092L8.5205 5.92411C8.9334 6.04915 9.2982 6.29941 9.5634 6.64148C9.8462 7.0063 9.9996 7.4548 10 7.9163V8.75C10 8.9802 9.8135 9.1667 9.5833 9.1667C9.3532 9.1667 9.1667 8.9802 9.1667 8.75ZM5 2.91671C5 2.22635 4.44036 1.66671 3.75 1.66671C3.05964 1.66671 2.5 2.22635 2.5 2.91671C2.5 3.60706 3.05964 4.16671 3.75 4.16671C4.44036 4.16671 5 3.60706 5 2.91671ZM7.5033 2.91874C7.5032 2.64121 7.411 2.37138 7.2408 2.15214C7.0919 1.96033 6.89063 1.81696 6.6626 1.73792L6.56331 1.7078L6.52262 1.69519C6.32435 1.62242 6.20951 1.40981 6.26302 1.20081C6.31654 0.991876 6.51933 0.860586 6.72811 0.891966L6.77002 0.900506L6.85343 0.923707C7.2674 1.04822 7.6332 1.29889 7.8992 1.64148C8.1827 2.00686 8.3366 2.45624 8.3366 2.91874L8.335 3.00541C8.317 3.43727 8.1651 3.85384 7.8992 4.19641C7.6155 4.56182 7.2181 4.82223 6.77002 4.93697C6.54709 4.99405 6.3201 4.85961 6.26302 4.63668C6.20597 4.41377 6.3404 4.18675 6.56331 4.12968L6.6626 4.09998C6.8907 4.02093 7.0919 3.87721 7.2408 3.68534C7.3897 3.49352 7.4788 3.26302 7.4988 3.0225L7.5033 2.91874ZM5.83333 2.91671C5.83333 4.0673 4.90059 5.00004 3.75 5.00004C2.59941 5.00004 1.66667 4.0673 1.66667 2.91671C1.66667 1.76611 2.59941 0.833366 3.75 0.833366C4.90059 0.833366 5.83333 1.76611 5.83333 2.91671Z" fill="#555555"/>
</g>
</svg>
