<svg width="24" height="24" viewBox="0 0 24 24" fill="none" xmlns="http://www.w3.org/2000/svg">
<path d="M19.2648 6.24246C19.2648 6.04461 19.2261 5.84866 19.1505 5.66586C19.0747 5.48294 18.9635 5.31625 18.8235 5.17624C18.6836 5.03642 18.5174 4.92584 18.3347 4.8501C18.1518 4.77433 17.9553 4.73494 17.7573 4.73494C17.5593 4.73494 17.3628 4.77433 17.1799 4.8501C16.9972 4.92584 16.8309 5.03642 16.6911 5.17624L7.59365 14.2729L9.8678 16.2636L18.8235 7.30867C18.9634 7.1687 19.0747 7.0027 19.1505 6.81986C19.2262 6.63693 19.2648 6.44046 19.2648 6.24246ZM5.71328 16.1532L4.91362 19.0853L7.84571 18.2857L8.69932 17.4321L6.42516 15.4414L5.71328 16.1532ZM20.9141 6.24246C20.9141 6.65704 20.8327 7.06818 20.6741 7.45121C20.5154 7.83407 20.2826 8.18168 19.9896 8.47474L8.85716 19.6072C8.75568 19.7086 8.6292 19.782 8.49075 19.8198L3.95532 21.0567C3.6699 21.1344 3.36484 21.0533 3.15566 20.8441C2.94653 20.6349 2.86527 20.3298 2.94306 20.0444L4.18 15.509L4.21462 15.4075C4.25591 15.3089 4.31647 15.2187 4.39259 15.1426L15.525 4.01017C15.8181 3.71708 16.1664 3.4843 16.5493 3.32567C16.9323 3.16709 17.3428 3.08569 17.7573 3.08569C18.1718 3.08569 18.5823 3.16709 18.9652 3.32567C19.3482 3.4843 19.6964 3.71708 19.9896 4.01017C20.2827 4.30332 20.5154 4.65149 20.6741 5.03451C20.8327 5.41746 20.914 5.82796 20.9141 6.24246Z" fill="#111111"/>
</svg>
