<svg width="1080" height="1080" viewBox="0 0 1080 1080" fill="none" xmlns="http://www.w3.org/2000/svg">
<rect width="1080" height="1080" fill="#FA7B1E"/>
<path d="M701.536 878.341C-12.9551 762.302 210.341 90.7606 643.985 216.648C922.531 317.557 855.772 659.109 739.52 851.222C732.038 867.208 720.816 881.481 701.536 878.341Z" fill="#111111"/>
<path d="M678.889 403.223C656.667 413.223 647.778 476.001 645.556 481.556C625.556 549.334 575 373.778 568.889 360.445C560 333.223 516.111 347.112 526.111 374.334C526.111 374.334 527.778 385.445 557.778 472.667C560 479.334 550.556 483.778 546.667 477.667L468.889 372.112C453.333 347.667 413.889 373.223 431.111 396.556C433.333 399.889 496.667 476.001 505.556 499.889C506.667 503.778 502.222 508.778 497.222 506.001C486.111 501.001 424.444 431.001 406.667 427.667C392.778 424.889 384.444 442.112 392.778 453.778C410.556 479.334 460.556 523.223 468.889 542.112C471.667 548.778 467.222 553.223 461.667 551.001C442.778 542.667 400 504.889 395 503.223C372.222 494.334 355.556 524.889 377.778 537.667C388.889 544.334 420 566.556 420 566.556C487.778 611.556 514.444 717.112 619.444 657.667C705.556 623.223 690 492.667 703.889 421.001C707.778 408.223 692.778 397.112 678.889 403.223Z" fill="white"/>
</svg>
