<svg width="24" height="24" viewBox="0 0 24 24" fill="none" xmlns="http://www.w3.org/2000/svg">
<path d="M7.79988 1.14602C9.667 0.64573 11.5867 1.75351 12.087 3.62063C12.1982 4.03563 12.2291 4.45359 12.1905 4.85794C12.8277 4.97168 13.4455 5.16797 14.0235 5.44876C15.6 6.21477 16.7636 7.54964 17.2022 9.18606C17.7477 11.2219 18.6365 12.5287 19.4962 13.3706C20.0558 13.9187 20.4917 14.3468 20.7901 14.6568C20.938 14.8104 21.0709 14.9536 21.1729 15.0796C21.2235 15.1421 21.2807 15.2182 21.3321 15.3013C21.3608 15.3478 21.4227 15.4503 21.4669 15.5904L21.504 15.7427L21.5196 15.8531C21.5347 15.9831 21.5408 16.1678 21.4874 16.3716C21.416 16.6436 21.2684 16.8339 21.1925 16.9283C21.0688 17.0819 20.9275 17.1716 20.8565 17.2134C20.7731 17.2625 20.6893 17.3004 20.6192 17.3296C20.4787 17.3882 20.311 17.4441 20.1358 17.4976C19.7824 17.6055 19.2819 17.7395 18.6505 17.9087L15.4942 18.7544C15.5119 20.5358 14.3288 22.1724 12.5284 22.6548C10.7279 23.1373 8.88516 22.3111 8.00984 20.7593L6.78523 21.0884C6.15374 21.2576 5.65307 21.3919 5.29304 21.4751C5.11463 21.5164 4.94198 21.5513 4.79109 21.5708C4.71563 21.5806 4.62351 21.5892 4.52644 21.5884C4.44401 21.5877 4.27738 21.5813 4.09382 21.5103C3.98097 21.4666 3.75741 21.376 3.55964 21.1763C3.36184 20.9764 3.27408 20.7515 3.23152 20.6382C3.15406 20.4318 3.15708 20.2433 3.15925 20.1704C3.1622 20.0729 3.17403 19.9782 3.1866 19.899C3.21198 19.7389 3.25447 19.5482 3.30574 19.3413C3.40924 18.9237 3.57367 18.335 3.78425 17.5806C4.10771 16.4216 4.22422 14.8458 3.67878 12.8101C3.24027 11.1735 3.5802 9.43566 4.56257 7.98392C4.92279 7.45166 5.35952 6.97234 5.85457 6.5552C5.61909 6.22436 5.43644 5.84705 5.32527 5.43216C4.8252 3.56528 5.93314 1.6465 7.79988 1.14602ZM10.0802 20.2046C10.5689 20.6923 11.2959 20.9147 12.0108 20.7232C12.7256 20.5317 13.2434 19.9756 13.4229 19.3091L10.0802 20.2046ZM13.1495 7.24759C12.0424 6.70975 10.6753 6.58688 9.35359 6.94095C8.03163 7.29517 6.90876 8.08547 6.21882 9.10501C5.53224 10.1196 5.33505 11.2648 5.61043 12.2925C6.24604 14.6647 6.13341 16.6054 5.71101 18.1187C5.56605 18.638 5.44964 19.0596 5.35945 19.396C5.60995 19.3309 5.91022 19.2516 6.26765 19.1558L18.1329 15.9771C18.4897 15.8815 18.7889 15.7998 19.0382 15.731C18.792 15.4848 18.4816 15.1772 18.0968 14.8003C16.9743 13.701 15.9053 12.0767 15.2696 9.70462C14.9942 8.67691 14.2514 7.78299 13.1495 7.24759ZM10.1553 4.13821C9.94096 3.33816 9.1185 2.86353 8.31843 3.07767C7.51832 3.29205 7.04268 4.11446 7.25691 4.91458C7.31416 5.12825 7.41534 5.31795 7.54695 5.47806C7.95911 5.2861 8.39096 5.12856 8.83601 5.00931C9.28052 4.89023 9.73229 4.81089 10.1846 4.77102C10.2186 4.56648 10.2126 4.35198 10.1553 4.13821Z" fill="#111111"/>
</svg>
